<svg xmlns="http://www.w3.org/2000/svg" width="24" height="24" viewBox="0 0 24 24">
  <g id="iconfinder_77-behance_104426" transform="translate(-3.723 -5.101)">
    <path id="Path_2397" data-name="Path 2397" d="M36.178,27.257A1.79,1.79,0,0,0,34.416,28.8H37.7A1.49,1.49,0,0,0,36.178,27.257Z" transform="translate(-15.735 -11.359)" fill="#fff"/>
    <path id="Path_2398" data-name="Path 2398" d="M19.654,30.425H16.739V33.1h2.768c.415-.01,1.2-.131,1.2-1.3C20.709,30.411,19.654,30.425,19.654,30.425Z" transform="translate(-6.673 -12.983)" fill="#fff"/>
    <path id="Path_2399" data-name="Path 2399" d="M15.723,5.1a12,12,0,1,0,12,12A12,12,0,0,0,15.723,5.1Zm2.526,7.373H22.38v1.233H18.249Zm-2.088,6.468c0,3.056-3.18,2.955-3.18,2.955H7.771V11.885h5.211a2.558,2.558,0,0,1,2.832,2.666,1.738,1.738,0,0,1-1.528,1.905C16.3,16.456,16.161,18.942,16.161,18.942Zm7.728-.164H18.7a1.629,1.629,0,0,0,1.762,1.743c1.664,0,1.606-1.077,1.606-1.077h1.763c0,2.859-3.427,2.663-3.427,2.663a3.552,3.552,0,0,1-3.846-3.828s0-3.846,3.846-3.846C24.456,14.432,23.889,18.778,23.889,18.778Z" fill="#fff"/>
    <path id="Path_2400" data-name="Path 2400" d="M20.362,23.714c0-1.041-.708-1.041-.708-1.041H16.739v2.234h2.734C19.945,24.907,20.362,24.755,20.362,23.714Z" transform="translate(-6.673 -9.009)" fill="#fff"/>
  </g>
</svg>
