<svg xmlns="http://www.w3.org/2000/svg" width="16.045" height="16.015" viewBox="0 0 16.045 16.015">
  <g id="noun_Save_2209758" transform="translate(-38.2 -427.5)">
    <g id="Group_42" data-name="Group 42" transform="translate(38.2 427.5)">
      <path id="Path_104" data-name="Path 104" d="M57.245,257.863v3.552a.808.808,0,0,1-.025.2h0a.763.763,0,0,1-.743.611H41.963a.76.76,0,0,1-.753-.677.6.6,0,0,1-.01-.136v-3.552a.758.758,0,0,1,1.516,0V260.7H55.735v-2.844a.757.757,0,0,1,1.293-.536A.8.8,0,0,1,57.245,257.863Z" transform="translate(-41.2 -246.208)" fill="#fff"/>
      <path id="Path_105" data-name="Path 105" d="M117.493,49.6l-3.723,3.723c-.005.01-.015.015-.02.02a.877.877,0,0,1-.49.248c-.015,0-.03.005-.045.005a.549.549,0,0,1-.091.005h0l-.086-.005c-.015,0-.03-.005-.045-.005a.862.862,0,0,1-.49-.248l-.02-.02L108.758,49.6a.886.886,0,0,1,1.253-1.253l2.238,2.238v-8.2a.888.888,0,0,1,.884-.884.9.9,0,0,1,.626.258.873.873,0,0,1,.258.626v8.2l2.238-2.238a.89.89,0,0,1,1.253,0A.9.9,0,0,1,117.493,49.6Z" transform="translate(-105.1 -41.5)" fill="#fff"/>
    </g>
  </g>
</svg>
