<svg xmlns="http://www.w3.org/2000/svg" width="16.893" height="10.671" viewBox="0 0 16.893 10.671">
  <g id="noun_Mail_1053109" transform="translate(-7 -23)">
    <g id="Group_93" data-name="Group 93" transform="translate(7 23)">
      <path id="Path_179" data-name="Path 179" d="M8.578,975.362a1.6,1.6,0,0,0-1.166.408A1.62,1.62,0,0,0,7,976.943v7.509a1.6,1.6,0,0,0,.411,1.167,1.629,1.629,0,0,0,1.179.414H22.328a1.584,1.584,0,0,0,1.16-.42,1.637,1.637,0,0,0,.405-1.18v-7.509a1.6,1.6,0,0,0-.405-1.155,1.575,1.575,0,0,0-1.148-.408Zm14.063.821-6.8,5.539a.8.8,0,0,1-.8,0L8.258,976.19C12.893,976.156,18.786,976.156,22.641,976.183Zm-14.849.636,4.72,3.854L7.8,984.706C7.785,981.961,7.786,979.318,7.792,976.819Zm15.309,0c.006,2.7.006,5.463-.018,7.886l-4.7-4.033Zm-9.963,4.36c.511.414,1.031.85,1.541,1.254a1.7,1.7,0,0,0,1.535,0c.514-.4,1.03-.836,1.541-1.254l4.733,4.057c-4.684.01-9.842,0-14.082-.006Z" transform="translate(-7 -975.362)" fill="#fff"/>
    </g>
  </g>
</svg>
