<svg id="noun_instagram_3350460" xmlns="http://www.w3.org/2000/svg" width="23.826" height="23.826" viewBox="0 0 23.826 23.826">
  <path id="Path_2392" data-name="Path 2392" d="M19.855,0H3.971A3.971,3.971,0,0,0,0,3.971V19.855a3.971,3.971,0,0,0,3.971,3.971H19.855a3.971,3.971,0,0,0,3.971-3.971V3.971A3.971,3.971,0,0,0,19.855,0ZM21.84,19.855a1.985,1.985,0,0,1-1.985,1.985H3.971a1.985,1.985,0,0,1-1.985-1.985V3.971A1.985,1.985,0,0,1,3.971,1.985H19.855A1.985,1.985,0,0,1,21.84,3.971Z" fill="#fff"/>
  <path id="Path_2393" data-name="Path 2393" d="M11.956,6a5.956,5.956,0,1,0,5.956,5.956A5.956,5.956,0,0,0,11.956,6Zm0,9.927a3.971,3.971,0,1,1,3.971-3.971A3.971,3.971,0,0,1,11.956,15.927Z" transform="translate(-0.044 -0.044)" fill="#fff"/>
  <circle id="Ellipse_409" data-name="Ellipse 409" cx="1.5" cy="1.5" r="1.5" transform="translate(17 4)" fill="#fff"/>
</svg>
